<svg width="163" height="131" viewBox="0 0 163 131" fill="none" xmlns="http://www.w3.org/2000/svg">
<path d="M162.474 121.622V131H63.0043C48.6962 130.999 34.8141 125.211 23.639 114.588C12.4639 103.964 4.66079 89.1373 1.51184 72.5432C1.44611 72.1915 1.38039 71.8789 1.34752 71.6249C1.31466 71.4296 1.28179 71.2342 1.26535 71.0388H1.24893V71.0193C1.26536 70.9997 1.24893 70.9997 1.24893 70.9997V70.9607C1.22838 70.912 1.21715 70.8587 1.21605 70.8044C1.20984 70.7967 1.20516 70.7874 1.20231 70.7772C1.19947 70.767 1.19856 70.7565 1.19963 70.7457C0.717664 67.8278 0.377467 64.8794 0.180765 61.9147C0.0657332 60.0001 0 58.0463 0 56.0925C0 55.1743 -2.00489e-06 54.256 0.0492972 53.3573C0.371293 45.1446 2.21759 37.1182 5.45579 29.8535C7.12184 34.7457 9.0654 39.4979 11.2731 44.0769C18.9812 60.1884 29.7036 73.9755 42.6109 84.3713C44.2094 86.0181 45.95 87.4588 47.8038 88.6696C47.8202 88.6891 47.8202 88.6891 47.8366 88.6891C49.0011 89.4644 50.2089 90.1433 51.4519 90.721C55.1232 92.4792 59.0464 93.3748 63.0043 93.3586H130.807V74.9151C130.811 71.9731 130.519 69.0411 129.936 66.1818V66.1232C129.094 62.0404 127.677 58.1563 125.746 54.635C124.73 52.7651 123.569 51.0122 122.278 49.3989C134.287 59.5837 144.29 72.7499 151.595 87.9858C156.628 98.4808 160.296 109.821 162.474 121.622Z" fill="url(#paint0_linear_1_73)"/>
<path d="M162.474 74.9073V121.622C160.297 109.819 156.629 98.4753 151.595 87.9779C144.29 72.7419 134.287 59.5757 122.279 49.3911C119.361 45.6733 115.829 42.7116 111.905 40.6912C107.98 38.6706 103.747 37.6351 99.4698 37.649H47.1634C43.0515 37.6521 39.1089 39.5969 36.2029 43.0557C33.2968 46.5144 31.6652 51.2038 31.667 56.0925C31.6616 61.4658 32.6374 66.7763 34.527 71.6574C36.4166 76.5385 39.1749 80.8737 42.6114 84.3635C29.7049 73.9699 18.9825 60.1857 11.2736 44.0769C9.06591 39.4979 7.12234 34.7457 5.45629 29.8535C9.46569 20.8367 15.4685 13.2915 22.818 8.0309C30.1673 2.77026 38.5848 -0.00641641 47.1634 1.11337e-05H99.4698C113.464 -0.00208697 127.06 5.53483 138.114 15.7374C149.168 25.9401 157.051 40.2276 160.519 56.3465C160.544 56.4081 160.56 56.4741 160.568 56.5419C161.839 62.5466 162.479 68.7154 162.474 74.9073Z" fill="url(#paint1_linear_1_73)"/>
<g style="mix-blend-mode:multiply" opacity="0.15">
<path d="M162.474 121.622V131C162.474 131 161.11 106.832 131.859 85.3404C131.514 85.0864 131.169 84.8324 130.807 84.5784V74.9073C130.811 71.9653 130.519 69.0333 129.937 66.1739V66.1153C129.094 62.0326 127.678 58.1485 125.746 54.6272C124.73 52.7573 123.569 51.0044 122.279 49.3911C134.287 59.5759 144.29 72.7421 151.595 87.9779C156.629 98.4755 160.297 109.819 162.474 121.622Z" fill="black"/>
</g>
<g style="mix-blend-mode:multiply" opacity="0.15">
<path d="M51.4519 90.7132C51.4519 90.7132 27.9198 90.2443 0.180765 61.9147C0.0657332 60.0001 0 58.0463 0 56.0925C0 55.1743 -2.00489e-06 54.256 0.0492972 53.3573C0.371293 45.1446 2.21759 37.1182 5.45579 29.8535C7.12184 34.7457 9.0654 39.4979 11.2731 44.0769C18.9812 60.1884 29.7036 73.9755 42.6109 84.3713C44.2094 86.0181 45.95 87.4588 47.8038 88.6696C47.8202 88.6891 47.8202 88.6891 47.8366 88.6891C49.0012 89.4616 50.2092 90.138 51.4519 90.7132Z" fill="black"/>
</g>
<g style="mix-blend-mode:multiply" opacity="0.3">
<path d="M1.2493 70.9997C1.23288 70.9564 1.22181 70.9103 1.21643 70.863C1.23286 70.8825 1.23287 70.9216 1.2493 70.9607V70.9997Z" fill="black"/>
</g>
<g style="mix-blend-mode:multiply" opacity="0.3">
<path d="M154.668 131H63.004C48.6959 130.999 34.8138 125.211 23.6386 114.588C12.4636 103.965 4.66038 89.1375 1.51144 72.5434C1.4457 72.1917 1.37999 71.8791 1.34712 71.6251C1.3047 71.4323 1.27178 71.2365 1.24853 71.039V71.0195L1.26495 71.039C1.36355 71.4102 1.52788 72.055 1.75794 72.9928C2.23097 75.1531 2.80706 77.2797 3.48343 79.362C3.94356 80.7101 4.3215 82.2341 4.96239 83.7971C5.60328 85.3601 6.27703 87.0599 7.01652 88.8573C7.87104 90.5766 8.77486 92.3936 9.74441 94.3279C10.8454 96.1253 11.8807 98.1377 13.1789 100.033C14.4941 102.041 15.9041 103.959 17.4023 105.777C18.1746 106.715 18.9634 107.672 19.7522 108.649C20.6232 109.528 21.4941 110.446 22.3815 111.365C22.8252 111.814 23.2524 112.302 23.7126 112.732C24.2056 113.143 24.6821 113.572 25.1587 113.983C26.1447 114.823 27.0978 115.722 28.1331 116.523C30.2326 118.153 32.4048 119.646 34.6406 120.997C36.9451 122.389 39.3154 123.622 41.7396 124.689C44.2486 125.696 46.799 126.55 49.381 127.249C51.9834 127.932 54.6171 128.435 57.2689 128.753L61.4429 128.968C62.1002 129.007 62.9054 129.066 63.4477 129.046H65.5347C71.1055 129.066 76.6763 129.085 82.165 129.124C87.6536 129.163 93.0436 129.222 98.2694 129.281C108.704 129.417 118.466 129.632 126.814 129.886C135.178 130.101 142.129 130.453 147.01 130.629C151.89 130.871 154.668 131 154.668 131Z" fill="black"/>
</g>
<g style="mix-blend-mode:overlay" opacity="0.6">
<path d="M132.171 94.8554L130.807 94.914C128.096 95.0508 125.401 95.0703 122.689 95.1484C119.978 95.2266 117.283 95.2461 114.588 95.2657C111.893 95.2852 109.181 95.3243 106.47 95.2852C103.758 95.2461 101.063 95.2461 98.3684 95.1875C92.962 95.0703 87.5555 94.8945 82.149 94.6014C76.7425 94.3083 71.336 93.9567 65.9296 93.351H130.807V74.9075C130.811 71.9655 130.519 69.0335 129.936 66.1741V66.1155C130.56 68.2975 130.995 70.5496 131.235 72.8365C131.465 75.1615 131.514 77.4083 131.645 79.6942C131.728 81.5698 131.81 83.4649 131.859 85.3406C131.974 88.0172 132.056 90.6743 132.122 93.351L132.171 94.8554Z" fill="white"/>
</g>
<g style="mix-blend-mode:screen" opacity="0.4">
<path d="M160.518 56.3465C160.305 55.7018 159.68 53.7089 158.776 50.6806C158.053 48.8636 157.33 46.6168 156.246 44.1941C155.687 42.9828 155.095 41.6933 154.471 40.3452C153.846 38.9971 153.041 37.6881 152.302 36.2618C151.507 34.7875 150.646 33.3658 149.722 32.0026C149.262 31.2797 148.785 30.5569 148.308 29.8144C147.783 29.1111 147.257 28.4077 146.731 27.6848C146.205 26.9619 145.646 26.239 145.104 25.4966C144.496 24.8128 143.888 24.129 143.28 23.4256C142.672 22.7223 142.064 22.0189 141.439 21.3156C140.782 20.6513 140.108 19.987 139.435 19.3227C138.761 18.6584 138.087 17.9551 137.381 17.3299C136.674 16.7047 135.918 16.099 135.178 15.4738C133.732 14.1843 132.155 13.1292 130.577 11.9961C127.367 9.76891 123.995 7.88588 120.504 6.36923C118.745 5.60726 116.938 5.02117 115.179 4.33735C113.372 3.84891 111.564 3.34091 109.757 2.91109C107.949 2.6571 106.207 2.2859 104.383 2.07099C102.575 1.95376 100.653 1.77793 98.9929 1.71932C91.7952 1.58256 85.0905 1.36759 79.339 1.1136C73.5874 0.898686 68.8054 0.547059 65.453 0.371221C62.1007 0.195382 60.178 5.96053e-07 60.178 5.96053e-07H99.4694C113.464 -0.0020975 127.06 5.53481 138.114 15.7374C149.168 25.9401 157.051 40.2276 160.518 56.3465Z" fill="white"/>
</g>
<g style="mix-blend-mode:multiply" opacity="0.3">
<path d="M163 126.33L162.474 123.79L162.047 121.739C160.603 114.597 158.601 107.63 156.065 100.931C154.833 97.5709 153.452 94.3081 151.973 91.104C151.234 89.4823 150.445 87.9389 149.64 86.3563C148.835 84.7738 148.013 83.2889 147.126 81.7845C143.671 75.7417 139.754 70.091 135.425 64.904C133.289 62.3055 131.005 59.8633 128.688 57.4992C127.718 56.5224 126.749 55.565 125.746 54.6272C124.73 52.7573 123.569 51.0043 122.279 49.3911C119.361 45.6735 115.829 42.7116 111.905 40.6912C107.98 38.6708 103.747 37.6351 99.4698 37.649H47.1634C43.0515 37.6521 39.1089 39.5969 36.2029 43.0557C33.2968 46.5144 31.6652 51.2038 31.667 56.0925C31.6616 61.4658 32.6374 66.7765 34.527 71.6576C36.4166 76.5387 39.1749 80.8737 42.6114 84.3635C44.2099 86.0103 45.9505 87.451 47.8043 88.6618C45.7559 87.9086 43.8 86.8377 41.987 85.4771C37.8536 82.0375 33.9325 78.2505 30.2538 74.1453C28.4297 72.0939 26.6385 69.9642 24.9459 67.7565C23.2533 65.5487 21.6428 63.2433 20.0981 60.8988C17.0227 56.1857 14.2434 51.2099 11.783 46.0111C9.31387 40.8352 7.19819 35.4321 5.45629 29.8535C7.46607 35.2748 9.80007 40.5177 12.4403 45.5422C15.0529 50.5601 17.975 55.3403 21.1827 59.8438C22.7767 62.1101 24.4693 64.2788 26.1784 66.3889C27.8874 68.4989 29.6786 70.5308 31.5191 72.5041C32.6859 73.7545 33.9019 74.9463 35.1179 76.1381C33.975 73.9742 33.0224 71.6761 32.275 69.2804C31.2659 66.1446 30.6297 62.8566 30.3852 59.5116C30.0155 56.0947 30.2963 52.6226 31.2069 49.352C32.1897 46.0246 33.8887 43.0613 36.1348 40.7576C38.3809 38.4542 41.0956 36.8906 44.0082 36.2228C44.7341 36.0497 45.4704 35.9451 46.2103 35.9102C46.5718 35.8906 46.8018 35.8515 47.2948 35.832H48.2973L52.3398 35.8125L60.4249 35.7734L76.5786 35.6952L92.7323 35.7734C95.4437 35.8125 98.0566 35.7734 100.867 35.8515C103.691 36.0035 106.487 36.5948 109.182 37.6099C114.544 39.6174 119.383 43.2303 123.232 48.1016C125.746 50.2703 128.162 52.5562 130.512 54.9789C132.885 57.4299 135.151 60.0255 137.299 62.7549C141.611 68.1955 145.494 74.0945 148.9 80.3778C149.755 81.9213 150.577 83.5624 151.365 85.145C152.154 86.7275 152.927 88.3882 153.633 90.0489C155.079 93.3508 156.41 96.7113 157.594 100.169C159.463 105.758 160.979 111.505 162.129 117.363C162.228 111.716 162.343 106.089 162.474 100.443C162.655 107.496 162.803 114.569 162.918 121.622L163 126.33Z" fill="black"/>
</g>
<line x1="63" y1="63.5007" x2="102" y2="63.5" stroke="#A2A526" stroke-width="3"/>
<line x1="63" y1="50.5007" x2="102" y2="50.5" stroke="#1D69AF" stroke-width="3"/>
<line x1="63" y1="76.5007" x2="102" y2="76.5" stroke="#33F55E" stroke-width="3"/>
<defs>
<linearGradient id="paint0_linear_1_73" x1="81.2368" y1="125.336" x2="81.2368" y2="54.7354" gradientUnits="userSpaceOnUse">
<stop stop-color="#33F55E"/>
<stop offset="1" stop-color="#A2A526"/>
</linearGradient>
<linearGradient id="paint1_linear_1_73" x1="83.9652" y1="-2.67568" x2="83.9652" y2="85.865" gradientUnits="userSpaceOnUse">
<stop stop-color="#1D69AF"/>
<stop offset="0.162" stop-color="#00CEFB"/>
<stop offset="0.307" stop-color="#345383"/>
<stop offset="0.446" stop-color="#326A8A"/>
<stop offset="0.581" stop-color="#0064FA"/>
<stop offset="0.712" stop-color="#2300FA"/>
<stop offset="0.842" stop-color="#3A438C"/>
</linearGradient>
</defs>
</svg>
